<?xml version="1.0" standalone="no"?>
<!DOCTYPE svg PUBLIC "-//W3C//DTD SVG 20010904//EN"
 "http://www.w3.org/TR/2001/REC-SVG-20010904/DTD/svg10.dtd">
<svg version="1.0" xmlns="http://www.w3.org/2000/svg"
 width="367.000000pt" height="341.000000pt" viewBox="0 0 367.000000 341.000000"
 preserveAspectRatio="xMidYMid meet">
<metadata>
Created by potrace 1.11, written by Peter Selinger 2001-2013
</metadata>
<g transform="translate(0.000000,341.000000) scale(0.100000,-0.100000)"
fill="#000000" stroke="none">
<path d="M0 1705 l0 -1705 1835 0 1835 0 0 1705 0 1705 -1835 0 -1835 0 0
-1705z m1643 1660 c222 -39 424 -151 562 -313 111 -129 159 -234 190 -409 44
-252 -2 -487 -124 -641 -76 -95 -212 -162 -331 -162 -124 0 -216 51 -445 249
-203 175 -313 224 -505 225 -255 1 -478 -128 -522 -301 -6 -24 -14 -43 -19
-43 -20 0 -102 121 -129 192 -37 96 -40 190 -9 311 17 66 62 193 74 205 6 7
211 -49 232 -64 29 -19 41 -48 49 -122 4 -31 11 -65 16 -75 14 -27 70 -47 132
-47 43 0 61 5 83 24 25 22 28 30 33 119 5 96 5 96 45 137 43 45 163 108 350
184 169 68 198 82 224 106 85 81 63 253 -39 307 -88 47 -119 34 -398 -163
-114 -80 -238 -162 -277 -181 -60 -31 -75 -35 -118 -29 -61 7 -167 47 -167 63
0 18 148 171 226 233 118 94 281 169 424 196 96 17 339 17 443 -1z m-146 -145
c40 -24 62 -57 70 -104 4 -29 2 -37 -13 -43 -11 -3 -40 -25 -66 -48 -59 -53
-174 -113 -298 -155 -123 -42 -162 -62 -217 -113 -70 -65 -86 -104 -91 -232
-3 -65 -9 -113 -16 -117 -17 -11 -89 -9 -124 3 -34 12 -37 18 -47 102 -9 82
-29 123 -76 157 -70 50 -131 67 -299 79 -160 13 -249 31 -270 56 -21 25 -24
92 -6 139 25 66 46 80 119 80 55 0 87 -11 282 -89 268 -108 302 -114 397 -65
63 32 201 125 373 249 169 122 219 140 282 101z m1020 -824 c123 -58 194 -179
225 -384 21 -142 18 -212 -13 -383 -21 -118 -52 -217 -94 -299 -61 -121 -128
-177 -251 -211 -163 -45 -333 -6 -379 87 -11 22 -30 54 -41 70 -12 16 -34 58
-48 93 -14 36 -45 88 -69 115 l-42 51 0 90 c0 63 5 104 18 138 l19 47 94 0
c106 0 185 25 267 83 127 90 237 309 237 471 0 65 3 66 77 32z m-1389 -121
c116 -27 221 -94 355 -223 95 -93 108 -167 49 -275 -23 -44 -179 -204 -188
-194 -2 2 1 18 7 36 6 17 9 62 7 100 -4 82 -39 147 -106 198 -61 47 -127 63
-252 63 -173 0 -295 -43 -353 -126 -42 -60 -55 -98 -56 -164 l-1 -55 -29 45
c-79 127 -98 270 -48 371 69 141 257 236 472 238 44 0 108 -6 143 -14z m-7
-329 c136 -32 204 -112 204 -241 0 -54 -6 -81 -24 -119 -21 -43 -32 -52 -88
-77 -75 -35 -171 -59 -233 -59 -107 0 -250 48 -319 107 -63 54 -62 191 3 276
52 69 127 103 251 117 109 11 146 11 206 -4z m2479 -166 c11 -16 28 -62 36
-102 32 -151 -13 -549 -81 -712 -13 -31 -19 -36 -38 -30 -12 3 -23 7 -24 8 -1
1 -21 121 -43 266 -46 295 -48 383 -12 498 27 84 44 102 98 102 36 0 46 -5 64
-30z m-1979 -190 c80 -27 180 -91 217 -139 23 -29 62 -108 62 -126 0 -2 -16 3
-35 11 -80 33 -189 11 -252 -53 -95 -95 -90 -242 12 -331 20 -18 40 -32 45
-32 23 0 7 -21 -28 -39 -101 -51 -171 -66 -312 -65 -116 0 -143 3 -192 23 -57
22 -57 23 -42 45 37 57 34 141 -9 222 -35 68 -137 132 -195 122 -15 -3 -17 5
-14 56 2 32 9 75 15 95 l12 36 83 7 c45 4 108 14 140 23 74 22 194 85 257 135
49 39 52 40 111 36 34 -3 90 -15 125 -26z m261 -289 c28 -13 57 -38 74 -63 58
-83 30 -213 -57 -274 -148 -102 -340 0 -327 174 11 153 165 234 310 163z
m-909 -115 c67 -28 127 -132 127 -221 0 -61 -56 -105 -132 -105 -130 0 -216
167 -152 293 24 46 92 61 157 33z m1247 -114 c65 -3 117 1 163 12 38 9 70 16
72 16 12 0 26 -122 21 -172 -21 -177 -118 -311 -263 -362 l-42 -15 -7 37 c-8
46 -19 68 -55 110 -17 18 -29 45 -29 60 -1 43 -34 105 -84 158 -25 26 -46 49
-46 51 0 2 9 14 21 26 11 12 27 48 36 79 l16 57 51 -26 c42 -22 68 -28 146
-31z m-263 -158 c42 -32 80 -90 89 -139 6 -36 6 -37 -17 -29 -72 23 -172 -6
-222 -65 -55 -66 -62 -177 -15 -249 l26 -38 -47 -18 c-61 -23 -229 -32 -304
-17 -76 16 -185 72 -235 120 -74 72 -128 222 -114 318 3 21 4 21 45 7 26 -9
86 -16 157 -17 133 -2 204 14 320 70 51 24 96 38 140 43 36 4 79 14 95 22 41
22 44 21 82 -8z m677 -129 c27 -20 81 -52 120 -72 118 -59 152 -115 144 -237
-5 -78 -29 -143 -73 -194 l-28 -33 -71 7 c-131 13 -320 95 -456 200 -72 54
-89 74 -65 74 27 0 129 58 163 93 48 50 98 141 118 213 l17 65 41 -39 c23 -22
63 -56 90 -77z m870 32 c31 -42 30 -155 -2 -217 -29 -56 -102 -135 -164 -178
l-46 -32 10 37 c20 72 -11 173 -73 238 l-28 30 54 29 c30 15 80 50 111 78 66
58 103 62 138 15z m-1440 -121 c53 -40 68 -68 73 -139 3 -52 0 -69 -19 -102
-62 -106 -190 -126 -274 -41 -70 69 -80 158 -29 237 52 80 174 102 249 45z
m1140 -46 c65 -57 89 -177 52 -258 -32 -71 -178 -134 -340 -147 l-79 -6 16 23
c58 80 71 120 71 224 1 92 -1 104 -25 140 l-26 39 81 -3 c66 -2 122 2 208 17
4 0 23 -13 42 -29z m-2029 -141 c33 -47 85 -90 157 -129 l52 -29 -27 -10 c-44
-17 -128 -13 -167 7 -19 10 -43 34 -52 53 -25 47 -23 149 2 149 4 0 20 -18 35
-41z m1054 -57 c32 -27 87 -66 122 -87 35 -21 66 -39 67 -41 11 -8 -16 -53
-54 -94 -117 -125 -350 -160 -566 -85 -74 26 -185 95 -231 143 l-28 29 82 7
c46 4 113 17 150 29 66 22 69 23 101 5 40 -21 126 -23 171 -4 43 18 94 71 108
113 6 18 13 33 15 33 3 0 31 -22 63 -48z m396 -206 c33 -8 81 -18 108 -21 26
-4 47 -10 47 -15 0 -17 -103 -100 -157 -125 -115 -55 -306 -71 -483 -41 -134
22 -148 32 -59 39 41 3 97 13 126 22 76 23 171 91 211 151 l34 51 57 -23 c31
-13 83 -30 116 -38z m562 2 c-50 -84 -105 -127 -213 -164 -55 -19 -112 -34
-128 -34 -30 0 -29 0 15 28 49 32 119 105 119 125 0 9 30 23 77 36 43 13 93
31 113 41 19 10 37 17 39 15 2 -2 -8 -23 -22 -47z m-237 -40 c0 -41 -111 -127
-202 -156 -62 -20 -188 -35 -188 -22 0 4 17 12 38 18 59 18 158 87 186 129 25
38 26 38 96 39 38 1 70 -3 70 -8z"/>
<path d="M1830 3095 c-113 -32 -184 -95 -243 -215 -29 -59 -32 -73 -31 -155 1
-122 28 -190 103 -265 138 -137 324 -151 488 -36 131 91 181 304 110 460 -76
166 -261 257 -427 211z m211 -36 c154 -60 245 -222 218 -389 -20 -130 -80
-213 -189 -263 -55 -26 -78 -30 -150 -31 -73 -1 -93 3 -140 26 -84 42 -126 82
-162 156 -31 62 -33 74 -33 167 0 86 4 107 25 150 35 73 133 167 195 187 73
23 173 22 236 -3z"/>
<path d="M1890 3040 c-152 -31 -252 -186 -216 -337 18 -78 37 -113 88 -162 60
-57 112 -75 193 -68 108 10 182 64 226 162 31 67 31 171 2 236 -49 110 -189
190 -293 169z"/>
<path d="M2405 1718 c-63 -43 -111 -123 -130 -215 -28 -135 14 -213 116 -213
111 0 209 97 245 242 33 132 -27 218 -152 218 -19 0 -50 -13 -79 -32z m177
-27 c31 -28 33 -33 32 -98 0 -85 -29 -154 -87 -211 -45 -44 -108 -76 -135 -68
-9 2 -29 7 -44 10 -107 24 -51 299 76 377 19 12 49 19 78 19 39 0 54 -6 80
-29z"/>
<path d="M2444 1661 c-59 -36 -114 -135 -114 -204 0 -43 32 -93 65 -101 36 -9
108 26 140 68 33 43 55 109 55 163 0 82 -73 119 -146 74z m112 -36 c38 -58
-18 -189 -98 -231 -61 -32 -98 -6 -98 68 0 126 142 245 196 163z"/>
<path d="M2253 1012 c-60 -52 -80 -139 -47 -207 48 -102 191 -85 222 27 15 53
-2 127 -37 162 -37 37 -105 46 -138 18z m122 -36 c48 -48 45 -147 -6 -190
-104 -88 -212 77 -122 185 33 38 92 41 128 5z"/>
<path d="M2285 968 c-55 -30 -71 -95 -34 -142 34 -44 98 -31 117 23 14 39 -1
95 -31 116 -25 18 -26 18 -52 3z"/>
<path d="M2564 731 c-32 -20 -64 -82 -64 -127 0 -70 57 -134 120 -134 96 0
155 134 97 221 -40 59 -97 74 -153 40z m120 -42 c55 -65 19 -189 -56 -189 -40
0 -65 15 -83 50 -39 76 3 170 76 170 29 0 43 -6 63 -31z"/>
<path d="M2585 665 c-48 -47 -22 -135 39 -135 31 0 66 43 66 82 0 32 -39 78
-65 78 -9 0 -27 -11 -40 -25z"/>
<path d="M3345 705 c-35 -34 -34 -86 1 -114 46 -36 102 -24 129 29 20 39 19
43 -11 79 -33 40 -83 43 -119 6z"/>
<path d="M3057 582 c-65 -40 -49 -142 27 -179 97 -46 181 54 124 147 -30 47
-102 63 -151 32z m122 -38 c66 -84 -44 -175 -113 -93 -49 58 -24 119 49 119
35 0 48 -5 64 -26z"/>
</g>
</svg>
